<?xml version="1.0" standalone="no"?>
<!DOCTYPE svg PUBLIC "-//W3C//DTD SVG 20010904//EN"
 "http://www.w3.org/TR/2001/REC-SVG-20010904/DTD/svg10.dtd">
<svg version="1.0" xmlns="http://www.w3.org/2000/svg"
 width="128.000000pt" height="128.000000pt" viewBox="0 0 128.000000 128.000000"
 preserveAspectRatio="xMidYMid meet">
<metadata>
Created by potrace 1.11, written by Peter Selinger 2001-2013
</metadata>
<g transform="translate(0.000000,128.000000) scale(0.100000,-0.100000)"
fill="#000000" stroke="none">
<path d="M850 1177 c-34 -17 -70 -74 -70 -111 0 -37 30 -90 60 -106 12 -7 43
-12 68 -12 41 0 51 5 79 36 31 34 38 55 33 101 -8 76 -101 127 -170 92z"/>
<path d="M347 1095 c-63 -32 -89 -97 -82 -202 2 -35 6 -67 9 -71 3 -5 -21 -20
-54 -35 -110 -51 -166 -134 -140 -211 16 -50 79 -108 154 -142 l61 -28 0 -106
c0 -116 13 -153 68 -194 57 -42 167 -16 257 61 35 30 45 34 59 25 90 -64 182
-97 236 -86 45 10 84 41 101 82 15 37 21 155 9 193 -5 16 1 23 32 35 217 91
220 265 5 361 l-62 28 4 52 c5 52 -8 79 -31 65 -9 -6 -20 -53 -23 -93 0 -3
-37 2 -83 11 -80 17 -85 20 -140 76 l-57 59 35 28 c19 16 35 35 35 43 0 28
-30 26 -69 -5 l-40 -32 -42 30 c-50 37 -138 71 -182 71 -18 0 -45 -7 -60 -15z
m160 -65 c91 -46 93 -50 42 -114 -44 -54 -44 -54 -130 -70 -48 -9 -89 -16 -92
-16 -11 0 -19 91 -13 134 15 96 85 120 193 66z m168 -130 l39 -40 -67 1 c-37
1 -67 5 -67 10 0 7 48 69 54 69 1 0 20 -18 41 -40z m47 -89 c35 -1 40 -6 97
-92 34 -50 61 -96 61 -102 0 -15 -76 -165 -99 -196 -18 -23 -28 -24 -173 -22
l-67 1 -39 53 c-21 28 -51 73 -66 99 l-27 47 22 43 c43 86 92 160 110 166 17
7 51 7 181 3z m-299 -80 c-20 -38 -41 -67 -44 -65 -11 6 -42 104 -36 111 8 7
66 21 95 22 23 1 22 0 -15 -68z m484 48 l31 -10 -15 -45 -15 -45 -23 33 c-60
90 -59 87 -33 81 13 -3 37 -9 55 -14z m-593 -86 c15 -38 30 -74 35 -82 6 -9 0
-40 -16 -87 l-24 -72 -36 14 c-89 38 -153 99 -153 147 0 37 32 77 88 111 31
19 62 35 69 35 6 1 23 -29 37 -66z m824 -26 c69 -72 32 -147 -101 -205 -25
-11 -28 -10 -36 11 -5 12 -21 50 -35 85 l-27 63 21 57 c11 31 23 63 25 70 7
18 111 -37 153 -81z m-184 -213 c6 -19 1 -22 -50 -33 -78 -15 -77 -16 -49 29
14 22 25 42 25 45 0 3 8 17 17 32 l17 26 17 -39 c9 -22 19 -49 23 -60z m-522
17 c20 -33 31 -58 25 -56 -7 1 -31 6 -54 10 -24 4 -43 12 -43 18 0 18 23 87
29 87 3 -1 22 -27 43 -59z m15 -102 c53 -9 72 -18 88 -38 11 -14 35 -39 53
-56 17 -16 32 -34 32 -40 0 -5 -19 -23 -42 -40 -147 -105 -237 -70 -239 94 -1
72 8 104 27 97 8 -3 44 -11 81 -17z m534 -71 c2 -98 -20 -135 -81 -143 -41 -5
-126 26 -168 62 l-33 28 54 58 c41 44 60 57 83 57 16 0 52 6 79 14 61 16 65
11 66 -76z m-261 45 c-1 -5 -13 -23 -29 -40 l-27 -33 -43 40 -43 40 71 0 c39
0 71 -3 71 -7z"/>
</g>
</svg>
